<svg xmlns="http://www.w3.org/2000/svg" viewBox="0 0 752 752"><path d="m585.68 305.14c5.1992-19.016 3.8945-44.34 0-62.844-3.8984-18.504-21.527-38.93-38.363-44.359-16.832-5.4336-33.414-8.25-45.336-3.6992-11.922 4.5508-27.898 7.3945-27.898 7.3945-2.5234 0.45312 22.699 2.7656 46.07 21.336-22.969-13.441-57.496-20.879-60.023-21.336 0 0-15.98-2.8398-27.898-7.3945-11.922-4.5508-28.504-1.7344-45.336 3.6992s-34.469 25.859-38.359 44.359c-3.8984 18.504-5.1992 43.836 0 62.844 2.1367 7.8008 5.7891 17.68 9.457 27.727l-32.219 63.52c-0.35156-0.019531-0.6875-0.10547-1.043-0.10547-11.234 0-20.34 9.1055-20.34 20.34 0 1.668 0.25391 3.2695 0.63281 4.8203l-26.285 19.422c1.0898-3.0273 2.0703-5.8906 2.7422-8.332 2.5664-9.3203 1.9219-21.734 0-30.801-1.918-9.0703-10.613-19.082-18.91-21.746-8.2969-2.6602-16.477-4.043-22.348-1.8086-5.8789 2.2305-13.754 3.6211-13.754 3.6211-1.2461 0.22266 11.191 1.3555 22.715 10.457-11.324-6.5859-28.344-10.234-29.59-10.457 0 0-7.875-1.3906-13.754-3.6211-5.8789-2.2305-14.051-0.85156-22.348 1.8086-8.2969 2.668-16.992 12.68-18.91 21.746-1.918 9.0703-2.5625 21.488 0 30.801 2.5664 9.3203 9.582 24.688 10.316 32.617 0.73437 7.9336 1.043 9.1562 0 16.309-1.043 7.1562-2.3633 30.859 0 39.867 2.3633 9.0117 12.527 27.703 18.91 32.617 6.3828 4.9102 14.789 5.0586 15.473-1.8086 0.6875-6.8711-1.5898-16.461-1.7188-23.562-0.12891-7.0977 0.09375-18.359 3.4375-27.18 3.3438-8.8242 9.1055-18.121 12.035-18.121 2.9258 0 8.6914 9.2969 12.035 18.121 3.3477 8.8164 3.5664 20.086 3.4375 27.18-0.12891 7.0938-2.4023 16.688-1.7188 23.562 0.6875 6.8672 9.0938 6.7188 15.473 1.8086 6.3828-4.9102 16.551-23.609 18.914-32.617s1.0391-32.711 0-39.867c-0.95312-6.5508-0.77344-8.1875-0.17188-14.496l44.051-32.555c2.8906 1.5781 6.1523 2.5508 9.6797 2.5508 11.234 0 20.34-9.1055 20.34-20.34 0-3.2812-0.85156-6.3398-2.2305-9.082l24.203-47.723c1.2227 4.4375 2.1016 8.4922 2.4141 11.859 1.4922 16.184 2.1133 18.68 0 33.273-2.1094 14.59-4.793 62.949 0 81.328 4.7969 18.379 25.418 56.523 38.363 66.543 12.949 10.016 30 10.316 31.391-3.6992 1.3867-14.012-3.2305-33.582-3.4922-48.059-0.25391-14.477 0.1875-37.461 6.9766-55.453 6.7852-17.992 18.473-36.969 24.414-36.969 5.9375 0 17.625 18.977 24.414 36.969 6.7852 17.992 7.2305 40.973 6.9766 55.453-0.26172 14.473-4.875 34.047-3.4922 48.059 1.3867 14.012 18.441 13.715 31.391 3.6992 12.949-10.02 33.566-48.164 38.363-66.543 4.793-18.379 2.1094-66.73 0-81.328-2.1133-14.598-1.4922-17.09 0-33.273 1.4844-16.168 15.715-47.516 20.914-66.531z"/></svg>