<svg xmlns="http://www.w3.org/2000/svg" viewBox="0 0 512 512"><path d="M188.3,305.4l1.4.5a3.9,3.9,0,0,1-.8,1,8,8,0,0,1-11.4,0,7.7,7.7,0,0,1-2.3-5.6,8.1,8.1,0,0,1,2.3-5.7,8.2,8.2,0,0,1,11.4,0l.8,1-1.4.5-.4-.5a6.5,6.5,0,0,0-9.4,0,6.3,6.3,0,0,0-1.9,4.7,6,6,0,0,0,1.9,4.6,6.5,6.5,0,0,0,9.4,0Z"/><path d="M193.7,285.5v23.4h-1.3V285.5Z"/><path d="M201.4,288.8l-3.6,2.7h-1.2l2.3-2.7Zm-2.6,5.8v14.3h-1.3V294.6Z"/><path d="M203.7,297.8v11.1h-1.3V294.6h1.3v.9a5.8,5.8,0,0,1,4.2-1.8,5.3,5.3,0,0,1,4.1,1.6,5.2,5.2,0,0,1,1.6,4v9.6h-1.3v-9.5a4.4,4.4,0,0,0-4.4-4.4,4,4,0,0,0-3.1,1.3A3.9,3.9,0,0,0,203.7,297.8Z"/><path d="M218.8,289.9a1,1,0,0,1,.4.9,1.1,1.1,0,0,1-.4.9,1.2,1.2,0,0,1-1.8,0,1.1,1.1,0,0,1-.4-.9,1.3,1.3,0,0,1,2.2-.9Zm-.2,4.7v14.3h-1.4V294.6Z"/><path d="M234.5,305.4l1.4.5a3.9,3.9,0,0,1-.8,1,8,8,0,0,1-11.4,0,7.7,7.7,0,0,1-2.3-5.6,8.1,8.1,0,0,1,2.3-5.7,8.2,8.2,0,0,1,11.4,0l.8,1-1.4.5-.4-.5a6.5,6.5,0,0,0-9.4,0,6.3,6.3,0,0,0-1.9,4.7,6,6,0,0,0,1.9,4.6,6.5,6.5,0,0,0,9.4,0Z"/><path d="M253.8,308.9h-1.3V306l-.8.9a7.8,7.8,0,0,1-5.7,2.4,8.2,8.2,0,0,1-8-8,7.8,7.8,0,0,1,2.4-5.7,7.3,7.3,0,0,1,5.6-2.3,7.7,7.7,0,0,1,5.7,2.3,3.9,3.9,0,0,1,.8,1v-2h1.3Zm-1.3-6.3V300a6,6,0,0,0-1.8-3.4,6.5,6.5,0,0,0-9.4,0,6.8,6.8,0,0,0,0,9.4,6.8,6.8,0,0,0,4.7,1.9,6.5,6.5,0,0,0,4.7-2A5.4,5.4,0,0,0,252.5,302.6Z"/><path d="M280.7,308.9h-1.3V306l-.8.9a7.8,7.8,0,0,1-5.7,2.4,8.2,8.2,0,0,1-8-8,7.8,7.8,0,0,1,2.4-5.7,7.3,7.3,0,0,1,5.6-2.3,7.7,7.7,0,0,1,5.7,2.3,3.9,3.9,0,0,1,.8,1V285.5h1.3Zm-1.3-6.3V300a6,6,0,0,0-1.8-3.4,6.5,6.5,0,0,0-9.4,0,6.8,6.8,0,0,0,0,9.4,6.8,6.8,0,0,0,4.7,1.9,6.5,6.5,0,0,0,4.7-2A5.4,5.4,0,0,0,279.4,302.6Z"/><path d="M284.5,300.5v.8a6.4,6.4,0,0,0,1.9,4.7,6.7,6.7,0,0,0,4.7,1.9,6.5,6.5,0,0,0,4.7-2l.6-.7,1.4.5a5.4,5.4,0,0,1-1.1,1.2,7.4,7.4,0,0,1-5.6,2.4,7.8,7.8,0,0,1-5.7-2.4,7.3,7.3,0,0,1-2.3-5.6,7.9,7.9,0,0,1,8-8,7.3,7.3,0,0,1,5.6,2.3,6.7,6.7,0,0,1,2.1,4.9Zm.2-1.3h12.6a6.1,6.1,0,0,0-1.5-2.6,6.5,6.5,0,0,0-4.7-2,6.3,6.3,0,0,0-4.7,2A7.3,7.3,0,0,0,284.7,299.2Z"/><path d="M302.4,297.8v11.1H301V294.6h1.4v.9a5.5,5.5,0,0,1,4.1-1.8,5.7,5.7,0,0,1,4.2,1.6,5.6,5.6,0,0,1,1.6,4v9.6H311v-9.5a4.6,4.6,0,0,0-1.3-3.1,4.4,4.4,0,0,0-3.2-1.3,4.2,4.2,0,0,0-3.1,1.3A3.6,3.6,0,0,0,302.4,297.8Z"/><path d="M317.4,294.6v-6.1h1.3v6.1h2.9v1.3h-2.9v13h-1.3v-13h-3v-1.3Z"/><path d="M339.2,308.9h-1.3V306l-.9.9a7.5,7.5,0,0,1-5.7,2.4,7.6,7.6,0,0,1-5.6-2.4,7.4,7.4,0,0,1-2.4-5.6,7.8,7.8,0,0,1,2.4-5.7,7.5,7.5,0,0,1,5.6-2.3,7.4,7.4,0,0,1,5.7,2.3l.9,1v-2h1.3Zm-1.3-6.3V300a6.8,6.8,0,0,0-1.9-3.4,6.4,6.4,0,0,0-9.3,0,6.5,6.5,0,0,0,0,9.4,6.6,6.6,0,0,0,4.6,1.9,6.3,6.3,0,0,0,4.7-2A6.1,6.1,0,0,0,337.9,302.6Z"/><path d="M343.8,285.5v23.4h-1.3V285.5Z"/><path d="M86.6,271.3V242.8H59.3v28.5H51.7V212h7.6v24.4H86.6V212h7.5v59.3Z" fill="#1f9d9c"/><path d="M130.8,272.2c-18.7,0-24-15.4-24-31.2s8.1-29,24.2-29c19.3,0,23.8,14.3,23.8,30.9C154.8,257.2,149.4,272.2,130.8,272.2Zm.2-53.9c-13.9,0-16.1,14.5-16.1,25s2.6,22.6,16,22.6,15.8-14.7,15.8-25.2S144.5,218.3,131,218.3Z" fill="#1f9d9c"/><path d="M195.5,271.3a263.7,263.7,0,0,0-10-26.9,43.7,43.7,0,0,1-5.2,1.2l-7,1v24.7h-7.6V214.5c5.2-.7,14.6-2.5,20.6-2.5,8.7,0,18.2,1.2,18.2,11.9,0,9-5.1,14.8-12,18.1a237.7,237.7,0,0,0,12.7,29.3Zm-9.3-52.9c-4.4,0-8.7,1-12.9,1.8V240c10.1-.6,22.4-3.5,22.4-15.3C195.7,220.4,191.9,218.4,186.2,218.4Z" fill="#1f9d9c"/><path d="M248.3,271.3l-4.8-17.4-19.7.5-5.1,16.9h-8.9l19.9-58.8,9.4-.5,18,59.3Zm-14.4-52.5-8.6,29.8h17.1Z" fill="#1f9d9c"/><path d="M280.5,271.3H264.2v-57c3.5-.5,14.3-2.3,23.7-2.3,17.9,0,22.1,13.6,22.1,29.4C310,260.8,299.7,271.3,280.5,271.3Zm5.7-53c-5,0-11.5.7-14.3,1.6v45h8.6c13.5,0,21.3-7.9,21.3-24C301.8,222,294.2,218.3,286.2,218.3Z" fill="#1f9d9c"/><path d="M320,271.3V212h33.9v5.5l-26.4.6v18.3h21.8v5.2l-21.8.5v23.6l26.4-.8v6.4Z" fill="#1f9d9c"/><path d="M400.9,271.3l-28.8-49.8v49.8h-7.6V212h10.1l27.8,48.9V212h7.5v59.3Z" fill="#1f9d9c"/><path d="M444.6,217.5v53.8h-7.5V217.5l-18.4.8V212h44.4v6.3Z" fill="#1f9d9c"/><path d="M118.8,163.8c22.7-.1,44.9,6.1,67.1,10.7,72.3,17.2,102.4,11.5,173.2-4.5,13.9-2.8,28.1-5.9,42.4-5.1,29,1.5,55.9,15.1,79.1,31.7a28.8,28.8,0,0,1,4.8,4.4c.2.4.1.7-.3.8a3.4,3.4,0,0,1-2.6-.2,213.9,213.9,0,0,0-50-19.3,134.7,134.7,0,0,0-38.4-4.1c-17.6,1.5-34.9,5.1-52.3,7.4-33.7,5-67.9,8.6-102,6.2-38.8-2.6-76.7-12.1-115.3-16.3-25.7-1.9-51.4,4.7-74.7,15.3a183.1,183.1,0,0,0-26.7,14.8c-3.8,2.8-6.8-1.5-7.1-4.9a3.5,3.5,0,0,1,1.6-3c3.2-2.2,6.5-4.2,9.8-6.2C55,175.4,86.4,163.6,118.8,163.8Z" fill="#1f9d9c"/><path d="M263.2,348.2c-72.4-.9-143.2-22.8-209.6-50.4-11.8-5.1-23.6-10.3-35.1-16.1-1.3-.7-1.4-.8-.9-2.2s3.2-7.1,5.2-5.6c65.7,29.8,135.6,52.3,207.5,60.2,78.3,9,156.6-13.5,227.2-46.1,9.4-4.4,18.8-9,27.9-14.1a2.4,2.4,0,0,1,2.3-.2c1,.6,1.2,1.6.1,2.2C419.6,315.5,343.1,347.3,263.2,348.2Z" fill="#1f9d9c"/><path d="M496,275.8c-.3,3.1.4,7.6-2.9,8.1a3.2,3.2,0,0,1-2-1.2.8.8,0,0,1,.1-.7c1.1-2.4,2-5.1,1.1-7.7-1.5-5.2-7.7-4.6-11.8-3.3-.8.1-1.9.9-2.4-.1s-.8-3.2.2-3.4c3.9-1.2,7.7-1.8,11.7-.8S496.1,271.8,496,275.8Z" fill="#1f9d9c"/></svg>